<svg width="12" height="12" viewBox="0 0 12 12" fill="none" xmlns="http://www.w3.org/2000/svg">
<path fill-rule="evenodd" clip-rule="evenodd" d="M0 6C0 9.31371 2.68629 12 6 12C9.31371 12 12 9.31371 12 6C12 2.68629 9.31371 0 6 0C2.68629 0 0 2.68629 0 6ZM10.5 6C10.5 8.48528 8.48528 10.5 6 10.5C3.51472 10.5 1.5 8.48528 1.5 6C1.5 3.51472 3.51472 1.5 6 1.5C8.48528 1.5 10.5 3.51472 10.5 6ZM6.75271 8.24877H5.25221V5.24877H6.75271V8.24877ZM6.75049 3.74877C6.75049 4.16299 6.4146 4.49877 6.00025 4.49877C5.5859 4.49877 5.25 4.16299 5.25 3.74877C5.25 3.33456 5.5859 2.99877 6.00025 2.99877C6.4146 2.99877 6.75049 3.33456 6.75049 3.74877Z" fill="#21201F"/>
</svg>
